<svg width="106" height="105" viewBox="0 0 106 105" fill="none" xmlns="http://www.w3.org/2000/svg">
<path d="M0 13.125C0 11.3845 0.697989 9.71532 1.94042 8.48461C3.18285 7.2539 4.86794 6.5625 6.625 6.5625H99.375C101.132 6.5625 102.817 7.2539 104.06 8.48461C105.302 9.71532 106 11.3845 106 13.125V26.25C106 27.9905 105.302 29.6597 104.06 30.8904C102.817 32.1211 101.132 32.8125 99.375 32.8125V82.0312C99.375 86.3825 97.63 90.5555 94.524 93.6322C91.4179 96.709 87.2051 98.4375 82.8125 98.4375H23.1875C18.7949 98.4375 14.5821 96.709 11.476 93.6322C8.36997 90.5555 6.625 86.3825 6.625 82.0312V32.8125C4.86794 32.8125 3.18285 32.1211 1.94042 30.8904C0.697989 29.6597 0 27.9905 0 26.25L0 13.125ZM13.25 32.8125V82.0312C13.25 84.642 14.297 87.1458 16.1606 88.9918C18.0243 90.8379 20.5519 91.875 23.1875 91.875H82.8125C85.4481 91.875 87.9757 90.8379 89.8394 88.9918C91.703 87.1458 92.75 84.642 92.75 82.0312V32.8125H13.25ZM99.375 13.125H6.625V26.25H99.375V13.125ZM33.125 49.2188C33.125 48.3485 33.474 47.5139 34.0952 46.8986C34.7164 46.2832 35.559 45.9375 36.4375 45.9375H69.5625C70.441 45.9375 71.2836 46.2832 71.9048 46.8986C72.526 47.5139 72.875 48.3485 72.875 49.2188C72.875 50.089 72.526 50.9236 71.9048 51.5389C71.2836 52.1543 70.441 52.5 69.5625 52.5H36.4375C35.559 52.5 34.7164 52.1543 34.0952 51.5389C33.474 50.9236 33.125 50.089 33.125 49.2188Z" fill="#65C4B4"/>
</svg>
