<svg width="31" height="32" viewBox="0 0 31 32" fill="none" xmlns="http://www.w3.org/2000/svg">
<g id="arrow-left-circle-fill 1" clip-path="url(#clip0_131_74)">
<path id="Vector" d="M15.5 0C11.3891 0 7.44666 1.68571 4.53984 4.68629C1.63303 7.68687 0 11.7565 0 16C0 20.2435 1.63303 24.3131 4.53984 27.3137C7.44666 30.3143 11.3891 32 15.5 32C19.6109 32 23.5533 30.3143 26.4602 27.3137C29.367 24.3131 31 20.2435 31 16C31 11.7565 29.367 7.68687 26.4602 4.68629C23.5533 1.68571 19.6109 0 15.5 0ZM22.2812 15C22.5382 15 22.7846 15.1054 22.9663 15.2929C23.1479 15.4804 23.25 15.7348 23.25 16C23.25 16.2652 23.1479 16.5196 22.9663 16.7071C22.7846 16.8946 22.5382 17 22.2812 17H11.0573L15.2171 21.292C15.3072 21.385 15.3786 21.4954 15.4274 21.6168C15.4761 21.7383 15.5012 21.8685 15.5012 22C15.5012 22.1315 15.4761 22.2617 15.4274 22.3832C15.3786 22.5046 15.3072 22.615 15.2171 22.708C15.1271 22.801 15.0201 22.8747 14.9024 22.925C14.7848 22.9754 14.6586 23.0013 14.5312 23.0013C14.4039 23.0013 14.2777 22.9754 14.1601 22.925C14.0424 22.8747 13.9354 22.801 13.8454 22.708L8.03288 16.708C7.94266 16.6151 7.87108 16.5048 7.82224 16.3833C7.77341 16.2618 7.74827 16.1315 7.74827 16C7.74827 15.8685 7.77341 15.7382 7.82224 15.6167C7.87108 15.4952 7.94266 15.3849 8.03288 15.292L13.8454 9.292C14.0273 9.10423 14.274 8.99874 14.5312 8.99874C14.7885 8.99874 15.0352 9.10423 15.2171 9.292C15.399 9.47977 15.5012 9.73445 15.5012 10C15.5012 10.2656 15.399 10.5202 15.2171 10.708L11.0573 15H22.2812Z" fill="#FEFDEE"/>
</g>
<defs>
<clipPath id="clip0_131_74">
<rect width="31" height="32" fill="white"/>
</clipPath>
</defs>
</svg>
