<svg width="84" height="83" viewBox="0 0 84 83" fill="none" xmlns="http://www.w3.org/2000/svg">
<g id="check-circle-fill 1" clip-path="url(#clip0_57_115)">
<path id="Vector" d="M84 41.5C84 52.5065 79.575 63.0622 71.6985 70.8449C63.822 78.6277 53.1391 83 42 83C30.8609 83 20.178 78.6277 12.3015 70.8449C4.42499 63.0622 0 52.5065 0 41.5C0 30.4935 4.42499 19.9378 12.3015 12.1551C20.178 4.37231 30.8609 0 42 0C53.1391 0 63.822 4.37231 71.6985 12.1551C79.575 19.9378 84 30.4935 84 41.5ZM63.1575 25.7819C62.7825 25.4126 62.336 25.1219 61.8446 24.9271C61.3533 24.7322 60.8273 24.6373 60.2979 24.6479C59.7686 24.6586 59.2469 24.7746 58.764 24.9891C58.2811 25.2035 57.847 25.512 57.4875 25.896L39.2542 48.8507L28.266 37.9881C27.5196 37.3008 26.5323 36.9267 25.5123 36.9445C24.4922 36.9623 23.5189 37.3706 22.7975 38.0834C22.0761 38.7962 21.6628 39.7579 21.6448 40.7659C21.6268 41.7738 22.0055 42.7493 22.701 43.4868L36.5925 57.2181C36.9667 57.5872 37.4124 57.8781 37.9028 58.0733C38.3933 58.2685 38.9185 58.3642 39.4472 58.3545C39.9758 58.3448 40.4971 58.23 40.9799 58.017C41.4627 57.8039 41.8971 57.4969 42.2572 57.1144L63.2153 31.2288C63.9297 30.4947 64.3244 29.5131 64.3146 28.4947C64.3048 27.4763 63.8913 26.5023 63.1628 25.7819H63.1575Z" fill="#FEFDEE"/>
</g>
<defs>
<clipPath id="clip0_57_115">
<rect width="84" height="83" fill="white"/>
</clipPath>
</defs>
</svg>
