<svg width="38" height="44" viewBox="0 0 38 44" fill="none" xmlns="http://www.w3.org/2000/svg">
<g id="document-export-icon 1" clip-path="url(#clip0_131_76)">
<g id="Group">
<path id="Vector" d="M25.8697 0.257813C25.6917 0.103841 25.4396 0 25.1912 0C25.1393 0 25.0837 0 25.0318 0.0179036H2.26146C1.65346 0.0179036 1.07883 0.261393 0.667317 0.658854C0.252098 1.05632 0 1.59342 0 2.19857V41.8193C0 42.4245 0.252098 42.9616 0.66361 43.3591C1.07512 43.7565 1.63122 44 2.25776 44C13.7616 44 24.2607 44 35.7052 44C36.3317 44 36.8878 43.7565 37.2993 43.3591C37.7108 42.9616 37.9629 42.4245 37.9629 41.8193V12.7188C37.9815 12.6328 38 12.5648 38 12.4753C38 12.1816 37.8554 11.9202 37.6589 11.7305L25.9957 0.329427C25.9586 0.29362 25.9401 0.279297 25.9067 0.261393H25.8697V0.257813ZM17.9842 19.5973V32.0905C17.9842 32.624 18.4291 33.0537 18.9963 33.0537C19.5487 33.0537 20.0084 32.624 20.0084 32.0905V19.6081L24.65 23.5218C25.0615 23.8727 25.6954 23.8405 26.0587 23.443C26.422 23.0456 26.3887 22.444 25.9772 22.0931L19.6673 16.7721C19.278 16.4427 18.7034 16.4535 18.329 16.7829L12.0302 22.0931C11.6187 22.444 11.5705 23.0456 11.9487 23.443C12.312 23.8405 12.946 23.8727 13.3575 23.5218L17.999 19.6081L17.9842 19.5973ZM24.168 1.97298V10.5059C24.168 11.3187 24.5091 12.0635 25.0652 12.6006C25.6213 13.1377 26.3924 13.4671 27.234 13.4671H35.9054V41.8229C35.9054 41.8766 35.8868 41.9447 35.8349 41.9769C35.7979 42.0127 35.746 42.0449 35.6755 42.0449C26.5666 42.0449 11.1034 42.0449 2.24293 42.0449C2.18732 42.0449 2.11688 42.027 2.08351 41.9769C2.04644 41.9411 2.01307 41.8731 2.01307 41.8229V2.19857C2.01307 2.13053 2.03161 2.07682 2.08351 2.0446C2.12059 2.00879 2.17249 1.97656 2.24293 1.97656H24.1532H24.168V1.97298ZM26.1922 10.5059V3.35872L34.5225 11.5085H27.2302C26.9448 11.5085 26.6927 11.3867 26.4962 11.2148C26.3182 11.0394 26.1922 10.7816 26.1922 10.5059Z" fill="#FEFDEE"/>
</g>
</g>
<defs>
<clipPath id="clip0_131_76">
<rect width="38" height="44" fill="white"/>
</clipPath>
</defs>
</svg>
