<svg width="245" height="234" viewBox="0 0 245 234" fill="none" xmlns="http://www.w3.org/2000/svg">
<g id="headphones 1">
<path id="Vector" d="M122.5 43.875C102.194 43.875 82.7204 51.5792 68.3621 65.2928C54.0039 79.0064 45.9375 97.606 45.9375 117V131.625H61.25C65.3111 131.625 69.2059 133.166 72.0776 135.909C74.9492 138.651 76.5625 142.371 76.5625 146.25V190.125C76.5625 194.004 74.9492 197.724 72.0776 200.466C69.2059 203.209 65.3111 204.75 61.25 204.75H45.9375C41.8764 204.75 37.9816 203.209 35.1099 200.466C32.2383 197.724 30.625 194.004 30.625 190.125V117C30.625 105.477 33.0014 94.0658 37.6186 83.4195C42.2357 72.7732 49.0032 63.0997 57.5346 54.9514C66.0659 46.803 76.1942 40.3394 87.341 35.9296C98.4877 31.5197 110.435 29.25 122.5 29.25C134.565 29.25 146.512 31.5197 157.659 35.9296C168.806 40.3394 178.934 46.803 187.465 54.9514C195.997 63.0997 202.764 72.7732 207.381 83.4195C211.999 94.0658 214.375 105.477 214.375 117V190.125C214.375 194.004 212.762 197.724 209.89 200.466C207.018 203.209 203.124 204.75 199.062 204.75H183.75C179.689 204.75 175.794 203.209 172.922 200.466C170.051 197.724 168.438 194.004 168.438 190.125V146.25C168.438 142.371 170.051 138.651 172.922 135.909C175.794 133.166 179.689 131.625 183.75 131.625H199.062V117C199.062 97.606 190.996 79.0064 176.638 65.2928C162.28 51.5792 142.806 43.875 122.5 43.875Z" fill="#65C4B4"/>
</g>
</svg>
