<svg width="55" height="51" viewBox="0 0 55 51" fill="none" xmlns="http://www.w3.org/2000/svg">
<path d="M22.2533 46.48V35.3078C22.2533 34.5269 23.1127 33.73 23.972 33.73H30.847C31.7064 33.73 32.5658 34.5269 32.5658 35.3238V46.48C32.5658 46.9027 32.7469 47.3081 33.0692 47.607C33.3915 47.9059 33.8287 48.0738 34.2845 48.0738H48.0345C48.4904 48.0738 48.9276 47.9059 49.2499 47.607C49.5722 47.3081 49.7533 46.9027 49.7533 46.48V24.1675C49.7537 23.9581 49.7096 23.7506 49.6235 23.557C49.5373 23.3634 49.4109 23.1874 49.2514 23.0391L44.597 18.7265V8.23002C44.597 7.80733 44.416 7.40196 44.0936 7.10307C43.7713 6.80418 43.3341 6.63627 42.8783 6.63627H39.4408C38.9849 6.63627 38.5478 6.80418 38.2254 7.10307C37.9031 7.40196 37.722 7.80733 37.722 8.23002V12.3515L28.6264 3.91415C28.4668 3.76573 28.2771 3.64797 28.0683 3.56763C27.8595 3.48728 27.6356 3.44592 27.4095 3.44592C27.1835 3.44592 26.9596 3.48728 26.7508 3.56763C26.542 3.64797 26.3523 3.76573 26.1927 3.91415L5.56767 23.0391C5.40816 23.1874 5.28173 23.3634 5.19562 23.557C5.1095 23.7506 5.06539 23.9581 5.06579 24.1675V46.48C5.06579 46.9027 5.24687 47.3081 5.5692 47.607C5.89153 47.9059 6.3287 48.0738 6.78454 48.0738H20.5345C20.9904 48.0738 21.4276 47.9059 21.7499 47.607C22.0722 47.3081 22.2533 46.9027 22.2533 46.48Z" fill="#FEFDEE"/>
</svg>
