<svg width="51" height="47" viewBox="0 0 51 47" fill="none" xmlns="http://www.w3.org/2000/svg">
<g id="trash-fill 1" clip-path="url(#clip0_131_69)">
<path id="Vector" d="M7.96875 2.9375C7.12337 2.9375 6.31262 3.24699 5.71485 3.79787C5.11707 4.34876 4.78125 5.09593 4.78125 5.875V8.8125C4.78125 9.59157 5.11707 10.3387 5.71485 10.8896C6.31262 11.4405 7.12337 11.75 7.96875 11.75H9.5625V38.1875C9.5625 39.7456 10.2341 41.24 11.4297 42.3418C12.6252 43.4435 14.2467 44.0625 15.9375 44.0625H35.0625C36.7533 44.0625 38.3748 43.4435 39.5703 42.3418C40.7659 41.24 41.4375 39.7456 41.4375 38.1875V11.75H43.0312C43.8766 11.75 44.6874 11.4405 45.2852 10.8896C45.8829 10.3387 46.2188 9.59157 46.2188 8.8125V5.875C46.2188 5.09593 45.8829 4.34876 45.2852 3.79787C44.6874 3.24699 43.8766 2.9375 43.0312 2.9375H31.875C31.875 2.15843 31.5392 1.41126 30.9414 0.860374C30.3436 0.309486 29.5329 0 28.6875 0L22.3125 0C21.4671 0 20.6564 0.309486 20.0586 0.860374C19.4608 1.41126 19.125 2.15843 19.125 2.9375H7.96875ZM17.5312 14.6875C17.9539 14.6875 18.3593 14.8422 18.6582 15.1177C18.9571 15.3931 19.125 15.7667 19.125 16.1562V36.7188C19.125 37.1083 18.9571 37.4819 18.6582 37.7573C18.3593 38.0328 17.9539 38.1875 17.5312 38.1875C17.1086 38.1875 16.7032 38.0328 16.4043 37.7573C16.1054 37.4819 15.9375 37.1083 15.9375 36.7188V16.1562C15.9375 15.7667 16.1054 15.3931 16.4043 15.1177C16.7032 14.8422 17.1086 14.6875 17.5312 14.6875ZM25.5 14.6875C25.9227 14.6875 26.3281 14.8422 26.627 15.1177C26.9258 15.3931 27.0938 15.7667 27.0938 16.1562V36.7188C27.0938 37.1083 26.9258 37.4819 26.627 37.7573C26.3281 38.0328 25.9227 38.1875 25.5 38.1875C25.0773 38.1875 24.6719 38.0328 24.373 37.7573C24.0742 37.4819 23.9062 37.1083 23.9062 36.7188V16.1562C23.9062 15.7667 24.0742 15.3931 24.373 15.1177C24.6719 14.8422 25.0773 14.6875 25.5 14.6875ZM35.0625 16.1562V36.7188C35.0625 37.1083 34.8946 37.4819 34.5957 37.7573C34.2968 38.0328 33.8914 38.1875 33.4688 38.1875C33.0461 38.1875 32.6407 38.0328 32.3418 37.7573C32.0429 37.4819 31.875 37.1083 31.875 36.7188V16.1562C31.875 15.7667 32.0429 15.3931 32.3418 15.1177C32.6407 14.8422 33.0461 14.6875 33.4688 14.6875C33.8914 14.6875 34.2968 14.8422 34.5957 15.1177C34.8946 15.3931 35.0625 15.7667 35.0625 16.1562Z" fill="#FEFDEE"/>
</g>
<defs>
<clipPath id="clip0_131_69">
<rect width="51" height="47" fill="white"/>
</clipPath>
</defs>
</svg>
