<svg width="91" height="82" viewBox="0 0 91 82" fill="none" xmlns="http://www.w3.org/2000/svg">
<path d="M65.6112 71.8012C70.1073 67.7611 73.673 62.96 76.1034 57.6741C78.5337 52.3882 79.7809 46.7216 79.7731 41C79.7809 35.2784 78.5337 29.6118 76.1034 24.3258C73.673 19.0399 70.1073 14.2389 65.6112 10.1987L61.5845 13.8221C65.5516 17.387 68.6978 21.6232 70.8422 26.2873C72.9866 30.9514 74.0869 35.9515 74.0799 41C74.0799 51.6139 69.3024 61.2232 61.5845 68.1779L65.6112 71.8012Z" fill="#65C4B4"/>
<path d="M57.5631 64.5546C61.001 61.4648 63.7276 57.7933 65.5859 53.751C67.4443 49.7088 68.398 45.3755 68.3921 41.0001C68.398 36.6247 67.4443 32.2913 65.5859 28.2491C63.7276 24.2068 61.001 20.5353 57.5631 17.4456L53.542 21.0689C56.451 23.6834 58.7581 26.7902 60.3305 30.2106C61.9029 33.631 62.7097 37.2978 62.7046 41.0001C62.7112 44.7029 61.9056 48.3703 60.3342 51.7917C58.7627 55.213 56.4564 58.3208 53.5477 60.9363L57.5631 64.5546Z" fill="#65C4B4"/>
<path d="M49.5211 57.3077C51.9012 55.1685 53.7887 52.6266 55.0751 49.8279C56.3616 47.0293 57.0216 44.0292 57.0172 41C57.0216 37.9708 56.3616 34.9707 55.0751 32.172C53.7887 29.3734 51.9012 26.8314 49.5211 24.6922L45.5 28.3156C47.3512 29.9795 48.8192 31.9567 49.8197 34.1335C50.8201 36.3104 51.3333 38.6439 51.3297 41C51.333 43.356 50.8197 45.6895 49.8192 47.8663C48.8188 50.043 47.3509 52.0203 45.5 53.6844L49.5211 57.3077ZM38.2029 18.1937C38.6847 18.4029 39.0913 18.7302 39.376 19.1381C39.6607 19.5461 39.812 20.0181 39.8125 20.5V61.5C39.8117 61.9822 39.66 62.4544 39.3748 62.8623C39.0895 63.2703 38.6823 63.5975 38.1999 63.8062C37.7176 64.015 37.1797 64.0969 36.648 64.0425C36.1163 63.9881 35.6124 63.7996 35.1943 63.4987L21.7547 53.8125H8.53125C7.77704 53.8125 7.05372 53.5425 6.52041 53.0619C5.98711 52.5814 5.6875 51.9296 5.6875 51.25V30.75C5.6875 30.0704 5.98711 29.4186 6.52041 28.938C7.05372 28.4575 7.77704 28.1875 8.53125 28.1875H21.7547L35.1943 18.5012C35.6127 18.1998 36.1171 18.011 36.6494 17.9566C37.1817 17.9022 37.7202 17.9844 38.2029 18.1937Z" fill="#65C4B4"/>
</svg>
