<svg width="94" height="82" viewBox="0 0 94 82" fill="none" xmlns="http://www.w3.org/2000/svg">
<path d="M26.2258 71.8012C21.5814 67.7611 17.8982 62.96 15.3877 57.6741C12.8772 52.3882 11.589 46.7216 11.597 41C11.589 35.2784 12.8772 29.6118 15.3877 24.3258C17.8982 19.0399 21.5814 14.2389 26.2258 10.1987L30.3853 13.8221C26.2873 17.387 23.0374 21.6232 20.8223 26.2873C18.6072 30.9514 17.4706 35.9515 17.4779 41C17.4779 51.6139 22.4129 61.2232 30.3853 68.1779L26.2258 71.8012Z" fill="#65C4B4"/>
<path d="M34.5392 64.5546C30.9879 61.4648 28.1715 57.7933 26.2519 53.751C24.3322 49.7088 23.3471 45.3755 23.3532 41.0001C23.3471 36.6247 24.3322 32.2913 26.2519 28.2491C28.1715 24.2068 30.9879 20.5353 34.5392 17.4456L38.6929 21.0689C35.6879 23.6834 33.3048 26.7902 31.6806 30.2106C30.0563 33.631 29.2229 37.2978 29.2282 41.0001C29.2214 44.7029 30.0535 48.3703 31.6768 51.7917C33.3 55.213 35.6824 58.3208 38.687 60.9363L34.5392 64.5546Z" fill="#65C4B4"/>
<path d="M42.8464 57.3077C40.3878 55.1685 38.438 52.6266 37.1092 49.8279C35.7804 47.0293 35.0986 44.0292 35.1031 41C35.0986 37.9708 35.7804 34.9707 37.1092 32.172C38.438 29.3734 40.3878 26.8314 42.8464 24.6922L47 28.3156C45.0878 29.9795 43.5714 31.9567 42.5379 34.1335C41.5045 36.3104 40.9744 38.6439 40.9781 41C40.9747 43.356 41.505 45.6895 42.5384 47.8663C43.5718 50.043 45.088 52.0203 47 53.6844L42.8464 57.3077ZM54.5376 18.1937C54.0399 18.4029 53.6199 18.7302 53.3259 19.1381C53.0318 19.5461 52.8755 20.0181 52.875 20.5V61.5C52.8758 61.9822 53.0325 62.4544 53.3272 62.8623C53.6218 63.2703 54.0425 63.5975 54.5407 63.8062C55.039 64.015 55.5946 64.0969 56.1439 64.0425C56.6931 63.9881 57.2136 63.7996 57.6455 63.4987L71.5281 53.8125H85.1875C85.9666 53.8125 86.7137 53.5425 87.2646 53.0619C87.8155 52.5814 88.125 51.9296 88.125 51.25V30.75C88.125 30.0704 87.8155 29.4186 87.2646 28.938C86.7137 28.4575 85.9666 28.1875 85.1875 28.1875H71.5281L57.6455 18.5012C57.2133 18.1998 56.6922 18.011 56.1424 17.9566C55.5925 17.9022 55.0363 17.9844 54.5376 18.1937Z" fill="#65C4B4"/>
</svg>
